<svg xmlns="http://www.w3.org/2000/svg" viewBox="0 0 300 128"><defs><style>.b0a87dbe-305d-4212-8449-3c1c5419f1a9{fill:#239954;}.\36 980d5c8-a192-42dd-be21-3e46828fbd68,.adbb002f-de72-47d6-a221-c30b98c0ce25{fill:#33495e;}.adbb002f-de72-47d6-a221-c30b98c0ce25{fill-rule:evenodd;}</style></defs><title>Asset 1</title><g id="d03f36b2-2fe4-40f9-a7e7-ef228785275e" data-name="Layer 2"><g id="c2fbd616-31d0-4e8b-a673-9510c96d04b9" data-name="Layer 1"><path class="b0a87dbe-305d-4212-8449-3c1c5419f1a9" d="M0,0H34.72C66.2,0,90.34,13.84,90.34,48.37,90.34,76.29,70.68,94,43.18,94H0Z"/><path class="adbb002f-de72-47d6-a221-c30b98c0ce25" d="M60.32,73.44l0-8.19c0-1.07-2.18-2-5.31-2.41l0-3.42c3.19-.49,5.38-1.43,5.38-2.51l-.11-20.14A58.72,58.72,0,0,0,44.68,14.44l-3.45-3.1a2,2,0,0,0-3,2.38l2.58,4.87a21.93,21.93,0,0,1,1.12,17.9l-.15.37c.07,11,0,6.69.11,19.95,0,1,2.07,1.87,5.05,2.29l0,3.76c-3.19.49-5.38,1.42-5.38,2.51l0,8.17c0,1.47,4.2,2.63,9.37,2.6s9.35-1.23,9.35-2.7Z"/><rect class="6980d5c8-a192-42dd-be21-3e46828fbd68" x="29.45" y="40.25" width="13.48" height="13.5" transform="translate(-0.27 0.21) rotate(-0.33)"/><path class="b0a87dbe-305d-4212-8449-3c1c5419f1a9" d="M111.91,1.34h34.15l12.67,48.34h.85a102.7,102.7,0,0,1,2.32-12.21L172.26,1.34h33.79l15,91.31h-32.4L184.2,43h-.6a75.89,75.89,0,0,1-2.16,9L168.35,92.65H149.14L137.37,54.28a62.21,62.21,0,0,1-2-11.31h-1.08c-.24,3.61-.48,7.34-.84,10.95l-3.84,38.74H97.17Z"/><path class="b0a87dbe-305d-4212-8449-3c1c5419f1a9" d="M300,38.63c-5.34-5-12-9.23-19.52-9.23a17.92,17.92,0,0,0-18.07,17.86c0,10.08,8.61,17.86,18.55,17.86,7.64,0,13.7-3.28,19-8.5l-1,34.26c-5.34,2.55-17.7,3.64-23.64,3.64-26.07,0-46.44-20.29-46.44-46.4,0-26.72,21-48.1,47.77-48.1A69.38,69.38,0,0,1,299,3.77Z"/><path class="b0a87dbe-305d-4212-8449-3c1c5419f1a9" d="M20.3,113.86a7.49,7.49,0,0,0-4.94-2.34A4.53,4.53,0,0,0,10.79,116a4.62,4.62,0,0,0,4.69,4.52,6.69,6.69,0,0,0,4.82-2.15l-.24,8.67a18.58,18.58,0,0,1-6,.92A11.6,11.6,0,0,1,2.32,116.26,12,12,0,0,1,14.4,104.09a17.55,17.55,0,0,1,5.65,1Z"/><path class="b0a87dbe-305d-4212-8449-3c1c5419f1a9" d="M50.8,116.11C50.8,123.54,45.06,128,38,128s-12.79-4.46-12.79-11.89c0-7.28,5.77-12,12.79-12S50.8,108.82,50.8,116.11Zm-17.12.12a4.33,4.33,0,1,0,8.65,0,4.33,4.33,0,1,0-8.65,0Z"/><path class="b0a87dbe-305d-4212-8449-3c1c5419f1a9" d="M56.42,104.46h8.07L72,117.3h.25a34.8,34.8,0,0,1-.71-5.9v-6.95h8v23.17h-8l-7.39-12.17h-.25a27.08,27.08,0,0,1,.52,4.64v7.53h-8Z"/><path class="b0a87dbe-305d-4212-8449-3c1c5419f1a9" d="M87.44,119.33l.43.34a8.82,8.82,0,0,0,5.25,2.12c.83,0,2.15-.34,2.15-1.38s-1.1-1.14-1.87-1.29l-1.69-.31c-3.28-.58-6-2.52-6-6.15,0-5.5,5-8.57,10-8.57a13.74,13.74,0,0,1,7.33,2L100.75,112a8.73,8.73,0,0,0-4.88-1.75c-.74,0-1.81.28-1.81,1.23s1,1,1.69,1.14l1.9.43c3.56.8,6.14,2.7,6.14,6.64,0,5.53-5,8.27-10,8.27a20.8,20.8,0,0,1-8.9-2.12Z"/><path class="b0a87dbe-305d-4212-8449-3c1c5419f1a9" d="M107.57,104.46h17.67V112l-4.63-.22v15.86H112.2V111.77l-4.63.22Z"/><path class="b0a87dbe-305d-4212-8449-3c1c5419f1a9" d="M130.21,104.46h10.15c5.21,0,9.63,2.21,9.63,8.05,0,3.5-1.35,5-4.48,6v.18a5.91,5.91,0,0,1,1.41,1.38l5,7.53h-9.7l-3.68-7.44h-.15v7.44h-8.22Zm8.22,10.27H139c1.38,0,2.76-.22,2.76-1.94s-1.26-2-2.7-2h-.64Z"/><path class="b0a87dbe-305d-4212-8449-3c1c5419f1a9" d="M177.49,104.46v13.71c0,6.76-4.23,9.83-10.71,9.83s-10.71-3.07-10.71-9.83V104.46h8.41v12.91c0,1.81.06,3.41,2.3,3.41s2.3-1.6,2.3-3.41V104.46Z"/><path class="b0a87dbe-305d-4212-8449-3c1c5419f1a9" d="M201.12,113.86a7.49,7.49,0,0,0-4.94-2.34,4.53,4.53,0,0,0-4.57,4.52,4.62,4.62,0,0,0,4.69,4.52,6.69,6.69,0,0,0,4.82-2.15l-.24,8.67a18.58,18.58,0,0,1-6,.92,11.6,11.6,0,0,1-11.75-11.74,12,12,0,0,1,12.09-12.17,17.55,17.55,0,0,1,5.65,1Z"/><path class="b0a87dbe-305d-4212-8449-3c1c5419f1a9" d="M205.27,104.46h17.67V112l-4.63-.22v15.86H209.9V111.77l-4.63.22Z"/><path class="b0a87dbe-305d-4212-8449-3c1c5419f1a9" d="M228,104.46h8.41v23.17H228Z"/><path class="b0a87dbe-305d-4212-8449-3c1c5419f1a9" d="M267.8,116.11c0,7.44-5.74,11.89-12.79,11.89s-12.79-4.46-12.79-11.89c0-7.28,5.77-12,12.79-12S267.8,108.82,267.8,116.11Zm-17.12.12a4.33,4.33,0,1,0,8.65,0,4.33,4.33,0,1,0-8.65,0Z"/><path class="b0a87dbe-305d-4212-8449-3c1c5419f1a9" d="M273.42,104.46h8.07L289,117.3h.25a34.79,34.79,0,0,1-.71-5.9v-6.95h8v23.17h-8l-7.39-12.17h-.24a27.21,27.21,0,0,1,.52,4.64v7.53h-8Z"/></g></g></svg>